HIERARCHY
ROOT Hips
{
	OFFSET 0.000000 0.000000 0.000000
	CHANNELS 6 Xposition Yposition Zposition Xrotation Yrotation Zrotation
	JOINT Chest
	{
		OFFSET 0.000000 0.009282 11.569106
		CHANNELS 3 Xrotation Yrotation Zrotation
		JOINT Chest2
		{
			OFFSET 0.000000 -0.016863 9.269641
			CHANNELS 3 Xrotation Yrotation Zrotation
			JOINT Chest3
			{
				OFFSET 0.000000 0.000000 8.374491
				CHANNELS 3 Xrotation Yrotation Zrotation
				JOINT Chest4
				{
					OFFSET 0.000000 0.000000 8.374493
					CHANNELS 3 Xrotation Yrotation Zrotation
					JOINT Neck
					{
						OFFSET 0.000000 -0.000001 12.152554
						CHANNELS 3 Xrotation Yrotation Zrotation
						JOINT Head
						{
							OFFSET 0.000000 -0.040100 7.802319
							CHANNELS 3 Xrotation Yrotation Zrotation
							End Site
							{
								OFFSET 0.000000 -0.020946 14.853096
							}
						}
					}
					JOINT RightCollar
					{
						OFFSET -2.894404 0.000000 6.791374
						CHANNELS 3 Xrotation Yrotation Zrotation
						JOINT RightShoulder
						{
							OFFSET -13.574684 0.000000 0.000000
							CHANNELS 3 Xrotation Yrotation Zrotation
							JOINT RightElbow
							{
								OFFSET -23.923903 0.000000 0.000000
								CHANNELS 3 Xrotation Yrotation Zrotation
								JOINT RightWrist
								{
									OFFSET -19.846718 -0.012765 0.000000
									CHANNELS 3 Xrotation Yrotation Zrotation
									End Site
									{
										OFFSET -14.973145 0.000000 0.000000
									}
								}
							}
						}
					}
					JOINT LeftCollar
					{
						OFFSET 2.894404 0.000000 6.791374
						CHANNELS 3 Xrotation Yrotation Zrotation
						JOINT LeftShoulder
						{
							OFFSET 13.574684 0.000000 0.000000
							CHANNELS 3 Xrotation Yrotation Zrotation
							JOINT LeftElbow
							{
								OFFSET 23.923903 0.000000 0.000000
								CHANNELS 3 Xrotation Yrotation Zrotation
								JOINT LeftWrist
								{
									OFFSET 19.846718 -0.012765 0.000000
									CHANNELS 3 Xrotation Yrotation Zrotation
									End Site
									{
										OFFSET 14.973145 0.000000 0.000000
									}
								}
							}
						}
					}
				}
			}
		}
	}
	JOINT RightHip
	{
		OFFSET -9.469263 -0.004642 0.045487
		CHANNELS 3 Xrotation Yrotation Zrotation
		JOINT RightKnee
		{
			OFFSET 0.000000 -0.002666 -40.478676
			CHANNELS 3 Xrotation Yrotation Zrotation
			JOINT RightAnkle
			{
				OFFSET 0.000000 -0.049110 -35.224068
				CHANNELS 3 Xrotation Yrotation Zrotation
				JOINT RightToe
				{
					OFFSET 0.000000 -12.539530 -6.151390
					CHANNELS 3 Xrotation Yrotation Zrotation
					End Site
					{
						OFFSET 0.000000 -5.044995 -1.291870
					}
				}
			}
		}
	}
	JOINT LeftHip
	{
		OFFSET 9.469263 -0.004642 0.045487
		CHANNELS 3 Xrotation Yrotation Zrotation
		JOINT LeftKnee
		{
			OFFSET 0.000000 -0.002666 -40.478676
			CHANNELS 3 Xrotation Yrotation Zrotation
			JOINT LeftAnkle
			{
				OFFSET 0.000000 -0.049110 -35.224068
				CHANNELS 3 Xrotation Yrotation Zrotation
				JOINT LeftToe
				{
					OFFSET 0.000000 -12.539530 -6.151390
					CHANNELS 3 Xrotation Yrotation Zrotation
					End Site
					{
						OFFSET 0.000000 -5.044995 -1.291870
					}
				}
			}
		}
	}
}
MOTION
Frames: 8
Frame Time: 0.016667
-10.779206 -2.855998 83.128616 4.450884 5.918926 -112.695048 0.676788 5.130056 1.973520 0.319054 2.281358 0.908498 0.319055 2.281358 0.908503 0.242652 1.710551 0.682477 19.053743 -4.617502 -14.818225 -0.456269 -3.817312 -28.518400 -6.088746 -7.703497 -4.402890 -58.922061 -57.903694 6.050296 -37.013874 -56.147789 41.965932 -51.318292 14.309209 25.676853 1.448264 11.498995 -6.555964 -50.379438 46.426619 36.579119 2.498973 -3.515866 -16.190928 -32.380083 -67.077942 -96.485219 9.217229 -2.904383 0.045645 4.151211 -0.373205 2.236215 -6.030985 0.848723 -2.654822 0.074317 0.007737 0.006794 10.200467 -2.075991 0.048412 3.434247 0.068184 4.916138 -6.847660 -0.790575 1.937532 -0.015803 0.013884 -0.011084 
-10.795644 -2.854983 83.127266 4.422874 5.872736 -112.713920 0.692684 5.104227 1.977645 0.326197 2.270375 0.910983 0.326196 2.270377 0.910984 0.248002 1.702300 0.684358 18.982402 -4.601940 -14.930652 -0.571077 -3.741761 -28.720751 -6.138431 -7.739581 -4.372543 -59.263284 -57.629783 5.774420 -37.432227 -56.066427 41.230806 -50.472267 12.673542 23.582307 1.327588 11.463400 -6.391174 -50.438563 46.343691 36.876475 2.389362 -3.521341 -15.703576 -31.908185 -67.240562 -95.944869 9.215518 -2.897478 0.040254 4.066375 -0.354470 2.253150 -6.007564 0.832447 -2.645121 0.076742 0.007086 0.007208 10.177869 -2.061739 0.041372 3.396256 0.068570 4.907624 -6.835655 -0.796519 1.942712 -0.018378 0.012161 -0.012088 
-10.811156 -2.855364 83.125488 4.394294 5.825629 -112.742907 0.703614 5.076448 1.982668 0.330894 2.258624 0.914080 0.330894 2.258623 0.914082 0.251519 1.693476 0.686699 18.916410 -4.582714 -15.035190 -0.675933 -3.662884 -28.907328 -6.202592 -7.765949 -4.357332 -59.565520 -57.360400 5.545333 -38.071768 -55.969220 40.272612 -49.547551 10.920782 21.208069 1.259252 11.462440 -6.329255 -50.495923 46.152172 37.122768 2.269611 -3.493610 -15.198749 -31.536445 -67.392534 -95.512662 9.206652 -2.886222 0.071151 3.989896 -0.344027 2.234226 -5.987868 0.819765 -2.644842 0.080577 0.006107 0.006628 10.152197 -2.042710 0.060910 3.364440 0.066848 4.871715 -6.827466 -0.803273 1.969234 -0.020472 0.009248 -0.012085 
-10.826741 -2.854146 83.123627 4.366241 5.775691 -112.765679 0.712806 5.045269 1.984661 0.334567 2.245338 0.915234 0.334566 2.245340 0.915231 0.254260 1.683507 0.687568 18.850134 -4.558518 -15.132569 -0.780837 -3.576937 -29.079220 -6.328852 -7.773531 -4.389117 -59.830565 -57.094227 5.358467 -38.826542 -55.870141 39.112870 -48.685250 9.360411 18.871072 1.202823 11.482810 -6.327961 -50.609339 45.896860 37.409008 2.140093 -3.450294 -14.718803 -31.047694 -67.560803 -94.920068 9.199009 -2.878866 0.088981 3.908971 -0.329133 2.215191 -5.966084 0.805403 -2.621374 0.082732 0.003842 0.007427 10.124473 -2.029318 0.105768 3.331392 0.067328 4.815192 -6.819979 -0.812187 1.995623 -0.021034 0.008733 -0.012327 
-10.841760 -2.854128 83.122177 4.340061 5.722700 -112.792685 0.727511 5.012704 1.994274 0.341252 2.230572 0.920229 0.341250 2.230571 0.920228 0.259267 1.672418 0.691331 18.773169 -4.534650 -15.226341 -0.905638 -3.490224 -29.244992 -6.467180 -7.751828 -4.444764 -60.083753 -56.810788 5.215880 -39.452989 -55.651289 38.027300 -47.935176 8.366839 16.926351 1.112104 11.479091 -6.296722 -50.715579 45.667294 37.676935 2.008336 -3.362838 -14.258126 -30.238924 -67.737561 -93.938631 9.193295 -2.871281 0.096835 3.816159 -0.319391 2.205968 -5.935483 0.794140 -2.592262 0.084139 0.001912 0.006207 10.094769 -2.021450 0.168124 3.297949 0.077899 4.758757 -6.811498 -0.825248 2.024221 -0.022447 0.006902 -0.011802 
-10.858839 -2.854082 83.121513 4.307854 5.665954 -112.794994 0.745417 4.976948 1.992720 0.348787 2.214421 0.920437 0.348788 2.214420 0.920425 0.264896 1.660294 0.691502 18.688393 -4.508488 -15.315898 -1.044549 -3.398777 -29.402530 -6.592158 -7.730236 -4.466598 -60.313542 -56.477147 5.156441 -40.151701 -55.241119 36.804809 -47.114361 7.227296 14.868087 0.941471 11.466048 -6.191128 -50.745847 45.480170 37.880161 1.919592 -3.272311 -13.763791 -29.135179 -67.971461 -92.635998 9.193583 -2.863927 0.062288 3.705889 -0.304012 2.203095 -5.900291 0.774648 -2.552921 0.084843 0.002602 0.005980 10.056514 -2.013104 0.186290 3.264197 0.085425 4.707800 -6.799465 -0.836586 2.050347 -0.024723 0.005419 -0.011862 
-10.877872 -2.855572 83.121239 4.274449 5.606521 -112.804017 0.760254 4.941800 1.992312 0.355042 2.198599 0.921592 0.355042 2.198595 0.921591 0.269567 1.648419 0.692389 18.604662 -4.483363 -15.397927 -1.182467 -3.311478 -29.546633 -6.841808 -7.727124 -4.464784 -60.268503 -56.071734 5.241472 -40.967075 -54.823302 35.536337 -46.330809 5.941029 12.653136 0.718933 11.435700 -6.023244 -50.667580 45.376485 37.979516 1.790373 -3.214777 -13.206234 -27.801525 -68.242066 -91.130973 9.193087 -2.858793 0.045871 3.591981 -0.278670 2.186144 -5.863273 0.744606 -2.511208 0.085035 0.005548 0.004629 10.018378 -1.999072 0.199156 3.227955 0.091096 4.664212 -6.785469 -0.848280 2.090174 -0.028890 0.002595 -0.011377 
-10.897719 -2.856745 83.121178 4.240426 5.548218 -112.818975 0.771887 4.909348 2.002289 0.360227 2.184877 0.927368 0.360226 2.184877 0.927362 0.273454 1.638119 0.696728 18.528748 -4.464869 -15.475906 -1.307902 -3.238878 -29.685146 -7.119102 -7.693612 -4.513786 -60.113431 -55.666609 5.390443 -41.809842 -54.410465 34.265813 -45.553428 4.556897 10.386584 0.517230 11.427790 -5.924010 -50.553860 45.223536 38.032245 1.628962 -3.167630 -12.646827 -26.348286 -68.519925 -89.523706 9.197628 -2.853657 0.033958 3.470059 -0.247187 2.175653 -5.822133 0.710748 -2.465564 0.085357 0.007862 0.005454 9.985259 -1.987807 0.217932 3.185168 0.103559 4.620973 -6.768590 -0.861753 2.119600 -0.033357 0.000197 -0.011967 
